<?xml version="1.0" standalone="no"?>
<!DOCTYPE svg PUBLIC "-//W3C//DTD SVG 20010904//EN"
 "http://www.w3.org/TR/2001/REC-SVG-20010904/DTD/svg10.dtd">
<svg version="1.0" xmlns="http://www.w3.org/2000/svg"
 width="700.000000pt" height="700.000000pt" viewBox="0 0 700.000000 700.000000"
 preserveAspectRatio="xMidYMid meet">
<metadata>
Created by potrace 1.14, written by Peter Selinger 2001-2017
</metadata>
<g transform="translate(0.000000,700.000000) scale(0.100000,-0.100000)"
fill="#000000" stroke="none">
<path d="M3668 6505 c-2 -1 -41 -5 -88 -9 -47 -4 -96 -8 -110 -10 -14 -3 -45
-7 -70 -10 -40 -5 -113 -18 -175 -30 -117 -23 -415 -113 -498 -150 -18 -8 -70
-31 -117 -52 -339 -150 -634 -355 -910 -634 -494 -499 -787 -1114 -866 -1820
-3 -30 -8 -433 -9 -895 -5 -971 -5 -984 -42 -1170 -74 -380 -314 -857 -597
-1189 l-50 -59 74 6 c41 4 85 9 97 12 13 3 33 7 44 10 179 39 372 156 540 325
181 183 328 413 445 697 69 166 140 417 159 563 3 25 8 56 10 70 11 57 14 224
16 848 2 723 6 786 65 1032 32 132 72 252 128 383 237 552 720 1021 1271 1232
39 15 79 31 90 35 82 36 369 103 495 115 36 4 79 9 95 11 38 5 326 4 385 -1
79 -7 163 -20 295 -45 79 -16 264 -72 362 -111 308 -122 596 -316 821 -552 76
-79 69 -72 138 -157 276 -340 459 -793 502 -1240 9 -99 8 -343 -2 -450 -17
-192 -84 -470 -151 -625 -170 -400 -373 -679 -681 -934 -117 -97 -104 -87
-179 -138 -235 -159 -559 -297 -820 -349 -323 -65 -648 -66 -945 -3 -314 67
-594 187 -850 364 -86 60 -117 70 -215 70 -78 -1 -98 -5 -149 -29 -159 -77
-231 -246 -177 -414 29 -90 77 -144 200 -226 365 -243 820 -413 1258 -471 156
-21 525 -28 683 -13 274 26 586 104 860 216 77 31 289 138 380 192 88 52 293
190 310 209 3 3 28 24 55 46 71 56 137 116 240 220 287 287 507 620 658 995
47 116 111 305 122 359 2 9 10 43 19 76 8 33 18 76 21 95 3 19 8 42 10 50 2 8
7 35 10 60 2 25 7 56 10 70 3 14 7 52 10 85 3 33 8 85 11 115 11 105 5 397
-11 520 -2 19 -7 55 -10 80 -5 39 -16 104 -32 190 -17 96 -92 359 -123 435 -4
11 -18 47 -30 80 -41 108 -157 340 -232 461 -238 388 -548 710 -921 958 -123
82 -145 95 -292 172 -301 157 -672 272 -1005 309 -25 3 -65 8 -90 11 -44 6
-436 14 -442 9z"/>
<path d="M2590 3653 c-243 -62 -343 -348 -192 -548 73 -96 168 -141 286 -133
88 6 148 33 212 96 73 72 99 137 99 247 0 71 -5 100 -22 137 -72 157 -231 240
-383 201z"/>
<path d="M3743 3658 c-113 -19 -223 -109 -264 -215 -70 -183 29 -396 215 -459
67 -23 176 -15 240 17 130 65 211 210 195 350 -22 194 -204 339 -386 307z"/>
<path d="M4885 3659 c-172 -22 -296 -168 -297 -349 -1 -122 82 -253 194 -308
204 -100 448 40 476 272 27 221 -160 413 -373 385z"/>
</g>
</svg>
